<svg width="33" height="31" viewBox="0 0 33 31" fill="none" xmlns="http://www.w3.org/2000/svg">
<path d="M16.5067 0.172852C25.0786 0.172852 32.0271 6.98769 32.0271 15.3947C32.0271 23.8018 25.0786 30.6166 16.5067 30.6166C13.7639 30.621 11.0694 29.9091 8.69996 28.5541L0.992558 30.6166L3.09091 23.0544C1.70819 20.7298 0.981768 18.086 0.98635 15.3947C0.98635 6.98769 7.93481 0.172852 16.5067 0.172852ZM11.2174 8.24045L10.907 8.25263C10.706 8.26463 10.5096 8.31641 10.3296 8.40485C10.1612 8.49835 10.0075 8.61525 9.8733 8.75191C9.68706 8.92391 9.58152 9.07309 9.46822 9.21769C8.89416 9.94972 8.58507 10.8484 8.58977 11.7719C8.59287 12.5178 8.79153 13.2439 9.10194 13.9228C9.73672 15.2958 10.7812 16.7495 12.1594 18.0966C12.4916 18.4208 12.8175 18.7466 13.1683 19.0495C14.8808 20.5283 16.9215 21.5947 19.1281 22.1639L20.0096 22.2963C20.2968 22.3116 20.5839 22.2902 20.8726 22.2765C21.3246 22.2537 21.7659 22.1336 22.1654 21.9249C22.3687 21.8222 22.567 21.7105 22.7599 21.59C22.7599 21.59 22.8266 21.5474 22.9539 21.453C23.1634 21.3008 23.2922 21.1928 23.466 21.0147C23.5948 20.8837 23.7066 20.73 23.792 20.555C23.913 20.3068 24.0341 19.8334 24.0837 19.4392C24.121 19.1378 24.1101 18.9734 24.1055 18.8714C24.0993 18.7085 23.9611 18.5396 23.8106 18.468L22.9073 18.0707C22.9073 18.0707 21.557 17.4938 20.7313 17.1255C20.6449 17.0885 20.5524 17.0673 20.4582 17.0631C20.352 17.0524 20.2447 17.0641 20.1435 17.0974C20.0423 17.1308 19.9496 17.185 19.8715 17.2564C19.8638 17.2533 19.7598 17.3401 18.6376 18.6735C18.5732 18.7584 18.4845 18.8226 18.3828 18.8578C18.2811 18.893 18.171 18.8978 18.0665 18.8714C17.9654 18.8448 17.8663 18.8113 17.7701 18.7709C17.5776 18.6918 17.5109 18.6614 17.3789 18.6066C16.4882 18.2253 15.6635 17.7102 14.9345 17.0798C14.7389 16.9124 14.5573 16.7297 14.3711 16.5531C13.7605 15.9796 13.2284 15.3308 12.788 14.623L12.6965 14.4784C12.6307 14.3812 12.5775 14.2764 12.5381 14.1663C12.4792 13.9426 12.6328 13.7629 12.6328 13.7629C12.6328 13.7629 13.01 13.358 13.1853 13.1389C13.3561 12.9257 13.5004 12.7187 13.5935 12.5711C13.7767 12.2819 13.8341 11.985 13.7379 11.7552C13.3033 10.714 12.8532 9.67739 12.3907 8.6484C12.2991 8.44442 12.0275 8.29829 11.7808 8.26937C11.6969 8.26024 11.6131 8.2511 11.5293 8.24502C11.3209 8.23486 11.112 8.23689 10.9039 8.25111L11.2158 8.23893L11.2174 8.24045Z" fill="white"/>
</svg>
