<svg width="33" height="31" viewBox="0 0 33 31" fill="none" xmlns="http://www.w3.org/2000/svg">
<path fill-rule="evenodd" clip-rule="evenodd" d="M7.66256 0.651382C13.5316 0.0133414 19.4545 0.0133414 25.3235 0.651382C28.5299 1.00245 31.1149 3.47811 31.4914 6.63437C32.1874 12.4711 32.1874 18.3674 31.4914 24.2041C31.1149 27.3604 28.5299 29.836 25.3252 30.1888C19.4557 30.827 13.5321 30.827 7.66256 30.1888C4.45623 29.836 1.87125 27.3604 1.49473 24.2058C0.798633 18.3685 0.798633 12.4716 1.49473 6.63437C1.87125 3.47811 4.45623 1.00245 7.66256 0.651382ZM24.9352 5.48348C24.4874 5.48348 24.0579 5.65794 23.7413 5.9685C23.4247 6.27905 23.2468 6.70025 23.2468 7.13944C23.2468 7.57863 23.4247 7.99983 23.7413 8.31038C24.0579 8.62093 24.4874 8.7954 24.9352 8.7954C25.383 8.7954 25.8125 8.62093 26.1291 8.31038C26.4458 7.99983 26.6236 7.57863 26.6236 7.13944C26.6236 6.70025 26.4458 6.27905 26.1291 5.9685C25.8125 5.65794 25.383 5.48348 24.9352 5.48348ZM8.47301 15.4192C8.47301 13.3331 9.31798 11.3324 10.822 9.85727C12.3261 8.38214 14.366 7.55343 16.4931 7.55343C18.6201 7.55343 20.66 8.38214 22.1641 9.85727C23.6681 11.3324 24.5131 13.3331 24.5131 15.4192C24.5131 17.5054 23.6681 19.5061 22.1641 20.9812C20.66 22.4563 18.6201 23.2851 16.4931 23.2851C14.366 23.2851 12.3261 22.4563 10.822 20.9812C9.31798 19.5061 8.47301 17.5054 8.47301 15.4192Z" fill="white"/>
</svg>
